<?xml version="1.0" encoding="UTF-8" standalone="no"?>
<svg
   width="110"
   height="50"
   overflow="hidden"
   version="1.1"
   id="svg128"
   sodipodi:docname="sumo-logo.svg"
   inkscape:version="1.1.2 (0a00cf5339, 2022-02-04)"
   xmlns:inkscape="http://www.inkscape.org/namespaces/inkscape"
   xmlns:sodipodi="http://sodipodi.sourceforge.net/DTD/sodipodi-0.dtd"
   xmlns="http://www.w3.org/2000/svg"
   xmlns:svg="http://www.w3.org/2000/svg">
  <sodipodi:namedview
     id="namedview130"
     pagecolor="#ffffff"
     bordercolor="#666666"
     borderopacity="1.0"
     inkscape:pageshadow="2"
     inkscape:pageopacity="0.0"
     inkscape:pagecheckerboard="0"
     showgrid="false"
     inkscape:snap-page="true"
     inkscape:zoom="3.99375"
     inkscape:cx="56.087637"
     inkscape:cy="9.7652582"
     inkscape:window-width="1920"
     inkscape:window-height="1043"
     inkscape:window-x="0"
     inkscape:window-y="0"
     inkscape:window-maximized="1"
     inkscape:current-layer="g126">
    <inkscape:grid
       type="xygrid"
       id="grid1027" />
  </sodipodi:namedview>
  <defs
     id="defs50">
    <clipPath
       id="clip0">
      <rect
         x="0"
         y="0"
         width="1280"
         height="720"
         id="rect2" />
    </clipPath>
    <clipPath
       id="clip1">
      <rect
         x="741"
         y="274"
         width="70"
         height="70"
         id="rect5" />
    </clipPath>
    <clipPath
       id="clip2">
      <rect
         x="741"
         y="274"
         width="70"
         height="70"
         id="rect8" />
    </clipPath>
    <clipPath
       id="clip3">
      <rect
         x="741"
         y="274"
         width="70"
         height="70"
         id="rect11" />
    </clipPath>
    <clipPath
       id="clip4">
      <rect
         x="491"
         y="379"
         width="43"
         height="43"
         id="rect14" />
    </clipPath>
    <clipPath
       id="clip5">
      <rect
         x="491"
         y="379"
         width="43"
         height="43"
         id="rect17" />
    </clipPath>
    <clipPath
       id="clip6">
      <rect
         x="491"
         y="379"
         width="43"
         height="43"
         id="rect20" />
    </clipPath>
    <clipPath
       id="clip7">
      <rect
         x="442"
         y="377"
         width="42"
         height="43"
         id="rect23" />
    </clipPath>
    <clipPath
       id="clip8">
      <rect
         x="442"
         y="377"
         width="42"
         height="43"
         id="rect26" />
    </clipPath>
    <clipPath
       id="clip9">
      <rect
         x="442"
         y="377"
         width="42"
         height="43"
         id="rect29" />
    </clipPath>
    <clipPath
       id="clip10">
      <rect
         x="451"
         y="344"
         width="36"
         height="37"
         id="rect32" />
    </clipPath>
    <clipPath
       id="clip11">
      <rect
         x="451"
         y="344"
         width="36"
         height="37"
         id="rect35" />
    </clipPath>
    <clipPath
       id="clip12">
      <rect
         x="451"
         y="344"
         width="36"
         height="37"
         id="rect38" />
    </clipPath>
    <clipPath
       id="clip13">
      <rect
         x="484"
         y="346"
         width="36"
         height="37"
         id="rect41" />
    </clipPath>
    <clipPath
       id="clip14">
      <rect
         x="484"
         y="346"
         width="36"
         height="37"
         id="rect44" />
    </clipPath>
    <clipPath
       id="clip15">
      <rect
         x="484"
         y="346"
         width="36"
         height="37"
         id="rect47" />
    </clipPath>
  </defs>
  <g
     clip-path="url(#clip0)"
     id="g126">
    <g
       aria-label="Su"
       id="text54"
       style="font-weight:700;font-size:15.7105px;font-family:Abadi, AbadiMT, sans-serif;fill:#003067;stroke-width:0.2182">
      <path
         d="m 22.010335,18.633538 q 0,1.012591 -0.567664,1.787376 -0.559994,0.774785 -1.511215,1.204369 -0.943551,0.421913 -2.017511,0.421913 -1.089302,0 -1.910114,-0.329859 -0.813141,-0.33753 -1.626282,-0.836154 v -1.841075 q 0.820812,0.644376 1.702993,1.112316 0.882182,0.460269 1.971484,0.460269 0.598349,0 1.127658,-0.237806 0.53698,-0.237805 0.866839,-0.652047 0.329859,-0.414242 0.329859,-0.912866 0,-0.744101 -0.652047,-1.143 -0.644376,-0.406571 -1.841074,-0.682732 -1.043276,-0.26849 -1.664638,-0.513966 -0.613692,-0.253148 -1.119987,-0.744101 -0.33753,-0.33753 -0.521638,-0.705745 -0.184107,-0.368215 -0.184107,-1.020262 0,-0.882182 0.483282,-1.572584 0.490953,-0.690403 1.357792,-1.066289 0.866839,-0.375886 1.963813,-0.375886 0.981906,0 1.695322,0.237805 0.713416,0.237806 1.495873,0.636705 v 1.81039 q -1.626282,-1.304095 -3.160511,-1.304095 -0.920537,0 -1.564913,0.437256 -0.636705,0.429584 -0.636705,1.089302 0,0.398899 0.222463,0.698074 0.230135,0.291503 0.73643,0.513966 0.513967,0.214792 1.495873,0.452598 1.043275,0.253147 1.779705,0.575335 0.744101,0.322188 1.242725,0.93588 0.506295,0.613691 0.506295,1.564913 z"
         id="path3178" />
      <path
         d="m 29.673806,21.87076 h -1.334778 l -0.09205,-1.227383 h -0.03069 c -0.291503,0.490953 -0.641819,0.84894 -1.050946,1.07396 -0.404013,0.219906 -0.838711,0.329859 -1.304094,0.329859 -0.490953,0 -0.923095,-0.102282 -1.296424,-0.306845 -0.373329,-0.204564 -0.667389,-0.508853 -0.882181,-0.912866 -0.214792,-0.404014 -0.322188,-0.894967 -0.322188,-1.47286 v -4.786793 h 1.442175 v 4.395565 c 0,0.490953 0.107396,0.902638 0.322188,1.235054 0.219906,0.327302 0.58045,0.490953 1.081631,0.490953 0.42447,0 0.787571,-0.127852 1.089302,-0.383557 0.306846,-0.255705 0.539537,-0.588121 0.698074,-0.997249 0.158537,-0.409127 0.237806,-0.843825 0.237806,-1.304094 v -3.436672 h 1.442174 l 0,3.360202 z"
         id="path3180"
         sodipodi:nodetypes="cccccssssccscscsscccc" />
    </g>
    <path
       d="m 66.706011,18.285726 -0.498587,0.102991 c -1.003504,0.13441 -1.655051,0.283223 -1.95464,0.446874 -0.299589,0.16365 -0.449493,0.391233 -0.449493,0.682749 0,0.266641 0.113028,0.493569 0.339084,0.680786 0.225838,0.187215 0.490296,0.280824 0.792722,0.280824 0.343011,0 0.714388,-0.15165 1.114131,-0.454948 0.399743,-0.303299 0.618599,-0.883058 0.656783,-1.739276 z m -9.236204,-2.466755 c -0.482223,0 -0.91186,0.209472 -1.288473,0.628417 -0.376614,0.418945 -0.564922,0.976228 -0.564922,1.671852 v 1.301565 c 0.254422,0.280823 0.508408,0.508842 0.762393,0.683839 0.253767,0.174997 0.587613,0.262496 1.000886,0.262496 0.388396,0 0.726606,-0.106265 1.014631,-0.318573 0.288243,-0.212091 0.508843,-0.498806 0.661802,-0.859928 0.153176,-0.361121 0.229765,-0.737736 0.229765,-1.129404 0,-0.455167 -0.08815,-0.850982 -0.264241,-1.187448 C 58.84556,16.53554 58.61645,16.275883 58.334536,16.09303 58.052402,15.910397 57.764377,15.818971 57.469807,15.818971 Z m -22.25644,0 c -0.482224,0 -0.91186,0.209472 -1.288474,0.628417 -0.376613,0.418945 -0.564921,0.976228 -0.564921,1.671852 v 1.301565 c 0.254422,0.280823 0.508408,0.508842 0.762393,0.683839 0.253767,0.174997 0.587614,0.262496 1.000885,0.262496 0.388397,0 0.726608,-0.106265 1.014632,-0.318573 0.288243,-0.212091 0.508844,-0.498806 0.661801,-0.859928 0.153177,-0.361121 0.229765,-0.737736 0.229765,-1.129404 0,-0.455167 -0.08793,-0.850982 -0.26424,-1.187448 C 36.58912,16.53554 36.360009,16.275883 36.078095,16.09303 35.795962,15.910397 35.507937,15.818971 35.213367,15.818971 Z m 5.034101,-1.454088 h 1.728366 v 4.463289 c 0,0.45342 0.09448,0.82327 0.283006,1.109549 0.188742,0.286279 0.499678,0.429419 0.932806,0.429419 0.530445,0 0.968591,-0.234784 1.314221,-0.704134 0.345629,-0.469348 0.518662,-1.061108 0.518662,-1.775059 v -3.523064 h 1.728366 v 7.463981 h -1.61272 l -0.06939,-0.926479 -0.03055,0.04561 c -0.534154,0.704786 -1.263163,1.05718 -2.187023,1.05718 -0.809523,0 -1.446231,-0.251803 -1.910126,-0.755628 -0.463894,-0.503606 -0.695623,-1.182864 -0.695623,-2.037773 z m 11.752491,-0.11521 c 0.276897,0 0.581068,0.04605 0.912951,0.137684 v 1.695854 c -0.47524,-0.135284 -0.78443,-0.202927 -0.927788,-0.202927 -0.495751,0 -0.923642,0.239803 -1.283455,0.719189 -0.36003,0.479386 -0.540046,1.078347 -0.540046,1.797099 v 3.432292 h -1.736003 v -7.463981 h 1.593518 l 0.07767,0.917751 0.131356,-0.217328 c 0.389707,-0.543756 0.980156,-0.815633 1.771787,-0.815633 z m 21.807168,-0.06131 c 0.84727,0 1.498381,0.260968 1.953545,0.782903 0.45495,0.521935 0.682532,1.124386 0.682532,1.807572 v 5.050029 h -1.728585 v -4.56126 c 0,-0.427236 -0.09448,-0.775484 -0.283877,-1.044743 -0.189178,-0.26926 -0.489642,-0.40389 -0.901823,-0.40389 -0.379232,0 -0.711332,0.119357 -0.996302,0.357849 -0.28497,0.238711 -0.499461,0.545283 -0.643256,0.919933 -0.143793,0.37465 -0.215581,0.765011 -0.215581,1.171299 v 3.560812 h -1.736002 v -7.46398 h 1.59308 l 0.08401,0.954191 0.259004,-0.356759 c 0.17216,-0.199653 0.420036,-0.378577 0.743409,-0.536773 0.323373,-0.158194 0.719843,-0.237183 1.189848,-0.237183 z m -8.420791,0 c 0.580194,0 1.103438,0.121319 1.569515,0.363739 0.466076,0.242422 0.830471,0.586524 1.092748,1.03187 0.262276,0.445566 0.393415,0.926697 0.393415,1.443833 v 2.941777 c 0,0.273842 0.09906,0.410872 0.297189,0.410872 0.146412,0 0.365267,-0.03513 0.657001,-0.105391 v 1.44296 c -0.503389,0.135284 -0.902914,0.202707 -1.198574,0.202707 -0.725735,0 -1.18352,-0.23151 -1.373354,-0.694532 l -0.06525,-0.350865 -0.665293,0.711769 c -0.358067,0.27886 -0.842253,0.418072 -1.452124,0.418072 -0.425927,0 -0.847926,-0.100809 -1.266435,-0.302208 -0.418508,-0.201617 -0.758682,-0.490951 -1.020523,-0.868219 -0.26184,-0.37705 -0.392761,-0.806033 -0.392761,-1.286291 0,-0.503826 0.140303,-0.924297 0.420691,-1.261853 0.280387,-0.337556 0.645437,-0.595251 1.094929,-0.773084 0.449711,-0.178052 0.921024,-0.308317 1.41394,-0.391016 0.493132,-0.0827 1.097983,-0.160158 1.814554,-0.232383 -0.01331,-0.201617 -0.104082,-0.399088 -0.272533,-0.592196 -0.168451,-0.193326 -0.375087,-0.331446 -0.61969,-0.41458 -0.244602,-0.08291 -0.480041,-0.124593 -0.706095,-0.124593 -0.310936,0 -0.605725,0.05194 -0.884367,0.156013 -0.278642,0.104082 -0.526517,0.228893 -0.743408,0.374432 -0.21711,0.145758 -0.532627,0.32752 -0.946335,0.54572 v -1.7611 c 1.028596,-0.590232 1.979513,-0.885458 2.852751,-0.885458 z M 53.88041,11.012452 h 1.736002 v 4.230251 l 0.239367,-0.27755 c 0.508188,-0.518008 1.164099,-0.776795 1.96795,-0.776795 0.649145,0 1.224975,0.174561 1.727055,0.5239 0.502297,0.349121 0.890476,0.816725 1.164973,1.402592 0.274277,0.585869 0.411525,1.206212 0.411525,1.861467 0,0.714607 -0.150995,1.380773 -0.453202,1.998498 -0.301989,0.617725 -0.725953,1.11064 -1.272109,1.478526 -0.546155,0.367886 -1.13246,0.551829 -1.758913,0.551829 -0.855782,0 -1.56777,-0.332319 -2.135963,-0.997176 l -0.313991,0.82087 H 53.88041 Z m -22.256439,0 h 1.736001 v 4.230251 l 0.239366,-0.27755 c 0.50819,-0.518008 1.1641,-0.776795 1.96795,-0.776795 0.649146,0 1.224977,0.174561 1.727056,0.5239 0.502298,0.349121 0.890476,0.816725 1.164972,1.402592 0.274277,0.585869 0.411525,1.206212 0.411525,1.861467 0,0.714607 -0.150994,1.380773 -0.453202,1.998498 -0.301989,0.617725 -0.725952,1.11064 -1.272108,1.478526 -0.546155,0.367886 -1.132459,0.551829 -1.758913,0.551829 -0.855782,0 -1.56777,-0.332319 -2.135964,-0.997176 l -0.31399,0.82087 h -1.312693 z"
       stroke="#003067"
       stroke-width="0.4364"
       stroke-linejoin="round"
       stroke-miterlimit="10"
       fill="#ffffff"
       fill-rule="evenodd"
       id="path56" />
    <g
       aria-label="burban"
       id="text58"
       style="font-size:10.9926px;font-family:Arial, Arial_MSFontService, sans-serif;fill-opacity:0;stroke-width:0.2182">
      <path
         d="m 33.239584,20.631163 h -0.89637 v -7.868727 h 0.966147 v 2.807192 q 0.611893,-0.767549 1.561937,-0.767549 0.526013,0 0.992984,0.214699 0.472338,0.209332 0.772917,0.59579 0.305946,0.381091 0.477706,0.923207 0.171759,0.542115 0.171759,1.159376 0,1.465322 -0.72461,2.265077 -0.72461,0.799754 -1.739064,0.799754 -1.009086,0 -1.583406,-0.842694 z m -0.01074,-2.893072 q 0,1.025188 0.279109,1.481424 0.456236,0.74608 1.23452,0.74608 0.633363,0 1.094966,-0.547483 0.461604,-0.552851 0.461604,-1.642449 0,-1.116436 -0.445501,-1.647817 -0.440134,-0.53138 -1.068129,-0.53138 -0.633363,0 -1.094966,0.55285 -0.461603,0.547483 -0.461603,1.588775 z"
         id="path3338" />
      <path
         d="m 42.197909,20.631163 v -0.837327 q -0.665568,0.966146 -1.808841,0.966146 -0.504543,0 -0.944677,-0.193229 -0.434765,-0.193229 -0.649465,-0.483073 -0.209331,-0.295212 -0.295211,-0.719243 -0.05904,-0.284476 -0.05904,-0.901737 v -3.531802 h 0.966146 v 3.161446 q 0,0.756815 0.05904,1.019822 0.09125,0.381091 0.386459,0.601157 0.295211,0.2147 0.729977,0.2147 0.434766,0 0.815857,-0.220067 0.381092,-0.225434 0.536749,-0.606525 0.161024,-0.386459 0.161024,-1.116436 v -3.054097 h 0.966146 v 5.700265 z"
         id="path3340" />
      <path
         d="M 44.564968,20.631163 V 14.930898 H 45.4345 v 0.864165 q 0.332784,-0.606526 0.611893,-0.799755 0.284476,-0.193229 0.622628,-0.193229 0.48844,0 0.992984,0.311314 l -0.332784,0.896369 q -0.354254,-0.209332 -0.708508,-0.209332 -0.316681,0 -0.568953,0.193229 -0.252271,0.187862 -0.359621,0.526013 -0.161024,0.515279 -0.161024,1.127171 v 2.98432 z"
         id="path3342" />
      <path
         d="m 49.127327,20.631163 h -0.89637 v -7.868727 h 0.966147 v 2.807192 q 0.611893,-0.767549 1.561937,-0.767549 0.526013,0 0.992984,0.214699 0.472338,0.209332 0.772917,0.59579 0.305946,0.381091 0.477706,0.923207 0.171759,0.542115 0.171759,1.159376 0,1.465322 -0.72461,2.265077 -0.72461,0.799754 -1.739064,0.799754 -1.009086,0 -1.583406,-0.842694 z m -0.01074,-2.893072 q 0,1.025188 0.279109,1.481424 0.456236,0.74608 1.23452,0.74608 0.633363,0 1.094966,-0.547483 0.461604,-0.552851 0.461604,-1.642449 0,-1.116436 -0.445501,-1.647817 -0.440134,-0.53138 -1.068129,-0.53138 -0.633363,0 -1.094966,0.55285 -0.461603,0.547483 -0.461603,1.588775 z"
         id="path3344" />
      <path
         d="m 58.069551,19.928023 q -0.536748,0.456236 -1.035924,0.644097 -0.493808,0.187862 -1.062761,0.187862 -0.939309,0 -1.443853,-0.456236 -0.504543,-0.461603 -0.504543,-1.175478 0,-0.418663 0.187862,-0.762182 0.193229,-0.348886 0.499176,-0.558218 0.311314,-0.209332 0.697772,-0.316682 0.284477,-0.07514 0.858797,-0.144922 1.170111,-0.139554 1.722961,-0.332783 0.0054,-0.198597 0.0054,-0.252272 0,-0.590423 -0.273742,-0.831959 -0.370356,-0.327417 -1.100333,-0.327417 -0.68167,0 -1.009087,0.241537 -0.322048,0.236169 -0.477705,0.842694 l -0.944677,-0.128819 q 0.12882,-0.606526 0.424031,-0.976882 0.295211,-0.375723 0.853429,-0.57432 0.558218,-0.203964 1.293563,-0.203964 0.729978,0 1.186214,0.171759 0.456235,0.171759 0.670935,0.434766 0.214699,0.257639 0.300579,0.654833 0.04831,0.246904 0.04831,0.891001 v 1.288196 q 0,1.347237 0.05904,1.706859 0.06441,0.354253 0.246904,0.68167 H 58.26278 q -0.15029,-0.300579 -0.193229,-0.70314 z m -0.08051,-2.157728 q -0.526013,0.2147 -1.578039,0.364989 -0.59579,0.08588 -0.842694,0.193229 -0.246905,0.10735 -0.381092,0.316682 -0.134187,0.203964 -0.134187,0.456236 0,0.386458 0.289844,0.644097 0.295212,0.257639 0.858797,0.257639 0.558218,0 0.992984,-0.241536 0.434766,-0.246904 0.63873,-0.670935 0.155657,-0.327417 0.155657,-0.966147 z"
         id="path3346" />
      <path
         d="m 60.463446,20.631163 v -5.700265 h 0.869532 v 0.81049 q 0.627995,-0.939309 1.814209,-0.939309 0.515278,0 0.944676,0.187861 0.434766,0.182495 0.649465,0.483074 0.2147,0.300579 0.300579,0.713875 0.05367,0.268374 0.05367,0.939309 v 3.504965 H 64.129435 V 17.16377 q 0,-0.590423 -0.112717,-0.880267 -0.112717,-0.295211 -0.402561,-0.466971 -0.284476,-0.177126 -0.670935,-0.177126 -0.61726,0 -1.068128,0.391826 -0.445501,0.391826 -0.445501,1.486792 v 3.113139 z"
         id="path3348" />
    </g>
    <g
       aria-label="Mo"
       id="text60"
       style="font-weight:700;font-size:14.6194px;font-family:Abadi, AbadiMT, sans-serif;fill:#003067;stroke-width:0.2182">
      <path
         d="m 46.05325,36.926586 h -1.356292 v -8.159167 h -0.02855 l -3.376454,5.896301 -3.362176,-5.839194 h -0.02855 v 8.10206 h -1.36343 v -9.972315 h 1.620412 l 3.133748,5.32523 3.069503,-5.32523 h 1.691796 z"
         id="path3056" />
      <path
         d="m 54.562197,33.521579 q 0,0.756669 -0.285535,1.413399 -0.278397,0.656731 -0.770945,1.142141 -0.485409,0.48541 -1.120725,0.74953 -0.635316,0.26412 -1.306324,0.26412 -0.999373,0 -1.820286,-0.463995 -0.820914,-0.471133 -1.284908,-1.284908 -0.456857,-0.820914 -0.456857,-1.820287 0,-0.999373 0.471133,-1.813148 0.471133,-0.820913 1.27777,-1.27777 0.806637,-0.463994 1.784595,-0.463994 0.756668,0 1.406261,0.285535 0.65673,0.278397 1.127863,0.778083 0.471133,0.499687 0.720977,1.135002 0.256981,0.635316 0.256981,1.356292 z m -1.449091,0 q 0,-0.471133 -0.157044,-0.906574 -0.157044,-0.442579 -0.435441,-0.756668 -0.278397,-0.321227 -0.656731,-0.506825 -0.371196,-0.185598 -0.813775,-0.185598 -0.563932,0 -1.049342,0.321227 -0.48541,0.314089 -0.763806,0.863744 -0.278397,0.542517 -0.278397,1.184971 0,0.977958 0.606762,1.670381 0.606762,0.685284 1.427676,0.685284 0.599624,0 1.085033,-0.321227 0.492549,-0.328365 0.763807,-0.87802 0.271258,-0.549656 0.271258,-1.170695 z"
         id="path3058" />
    </g>
    <path
       d="m 59.42161,31.280214 c -0.448838,0 -0.848582,0.194853 -1.199011,0.584777 -0.35043,0.389924 -0.525645,0.908368 -0.525645,1.555769 v 1.211012 c 0.236529,0.261404 0.473058,0.473713 0.709369,0.636491 0.236311,0.162777 0.54681,0.244166 0.931497,0.244166 0.36134,0 0.675985,-0.09884 0.944154,-0.296316 0.26795,-0.197471 0.473276,-0.46433 0.615761,-0.800359 0.142485,-0.336029 0.213836,-0.68624 0.213836,-1.051072 0,-0.423527 -0.08204,-0.791848 -0.245911,-1.104749 C 60.701792,31.946816 60.488609,31.705269 60.226115,31.53529 59.963838,31.365095 59.695669,31.280214 59.42161,31.280214 Z M 85.496336,31.14013 c -0.731633,0 -1.269706,0.342793 -1.613814,1.028378 h 2.947883 C 86.775226,31.887247 86.617879,31.6457 86.358443,31.443428 86.099006,31.241156 85.811634,31.14013 85.496336,31.14013 Z m -6.455244,-1.213195 h 1.608355 v 6.945755 h -1.608355 z m -8.073409,0 h 1.608355 v 6.945755 h -1.608355 z m -6.764212,0 h 1.608356 v 6.945755 h -1.608356 z m 27.483202,-0.164086 c 0.82655,0 1.6555,0.221036 2.4864,0.663329 v 1.620792 c -0.62864,-0.356976 -1.13355,-0.58325 -1.51453,-0.679039 -0.38097,-0.09579 -0.69562,-0.143794 -0.9435,-0.143794 -0.33123,0 -0.60333,0.05891 -0.81694,0.176742 -0.2134,0.117829 -0.3201,0.256603 -0.3201,0.41589 0,0.162559 0.10583,0.297844 0.31769,0.40607 0.21188,0.10801 0.5394,0.211437 0.98279,0.310064 0.96182,0.215364 1.65941,0.490296 2.09275,0.824361 0.43313,0.334065 0.64981,0.780066 0.64981,1.337786 0,0.41589 -0.13114,0.805159 -0.39342,1.167808 -0.26228,0.36265 -0.62536,0.648929 -1.08882,0.858837 -0.46368,0.210127 -0.99892,0.315082 -1.60596,0.315082 -0.40956,0 -0.78159,-0.04146 -1.11588,-0.124593 -0.33407,-0.08313 -0.60855,-0.175651 -0.82305,-0.277987 -0.2147,-0.102554 -0.45778,-0.227146 -0.72966,-0.373996 v -1.693234 c 0.92539,0.662893 1.82874,0.994557 2.71005,0.994557 0.37029,0 0.68515,-0.06655 0.94437,-0.199217 0.25923,-0.132884 0.38884,-0.315299 0.38884,-0.547465 0,-0.175869 -0.0978,-0.328174 -0.2937,-0.456693 -0.19594,-0.128739 -0.58543,-0.256604 -1.16869,-0.383378 -0.64369,-0.142048 -1.09493,-0.274278 -1.35349,-0.396252 -0.25856,-0.122192 -0.49248,-0.270132 -0.70173,-0.44382 -0.17064,-0.19507 -0.3009,-0.374868 -0.39081,-0.539392 -0.0897,-0.16474 -0.13484,-0.391233 -0.13484,-0.679911 0,-0.636054 0.26534,-1.153845 0.79577,-1.553369 0.53067,-0.399525 1.206,-0.599178 2.02665,-0.599178 z m -6.190337,0 c 0.486587,0 0.945239,0.100808 1.376405,0.302643 0.431157,0.202054 0.780065,0.47175 1.046922,0.809524 0.26687,0.337556 0.45866,0.703042 0.57518,1.096239 0.11674,0.393197 0.175,0.908804 0.175,1.546604 h -4.955115 c 0.02923,0.418291 0.160815,0.783994 0.394504,1.09733 0.233914,0.313117 0.50404,0.534155 0.81018,0.662456 0.306348,0.128521 0.598961,0.192889 0.878038,0.192889 0.790314,0 1.670757,-0.415453 2.641533,-1.24636 v 1.820664 c -0.430947,0.289116 -0.862546,0.526736 -1.295234,0.71286 -0.432472,0.186125 -0.958342,0.279079 -1.577376,0.279079 -0.721366,0 -1.351306,-0.169978 -1.890054,-0.509717 -0.538514,-0.339737 -0.952443,-0.790539 -1.241554,-1.351969 -0.289119,-0.561648 -0.43357,-1.155807 -0.43357,-1.78226 0,-0.694969 0.160166,-1.316622 0.480481,-1.865177 0.320099,-0.548556 0.750391,-0.979721 1.290437,-1.293711 0.540261,-0.314209 1.114996,-0.471094 1.724223,-0.471094 z M 74.839429,27.935421 h 1.473507 v 1.991514 h 1.805395 v 1.398446 h -1.805395 v 3.454985 c 0,0.520626 0.264896,0.781158 0.794685,0.781158 0.248098,0 0.585001,-0.07702 1.01071,-0.230855 v 1.433139 c -0.529572,0.18198 -1.008738,0.272969 -1.437506,0.272969 -1.322292,0 -1.983442,-0.61227 -1.983442,-1.836593 V 31.325381 H 73.58456 v -1.398446 h 1.121764 z m 4.988284,-1.113695 c 0.265326,0 0.480464,0.09339 0.644989,0.280169 0.164525,0.186779 0.246783,0.432473 0.246783,0.737299 0,0.298498 -0.08182,0.545065 -0.245901,0.739699 -0.163877,0.194417 -0.374439,0.291515 -0.631912,0.291515 -0.277764,0 -0.493576,-0.101462 -0.647177,-0.304389 -0.15362,-0.203144 -0.23042,-0.445346 -0.23042,-0.726825 0,-0.284969 0.07611,-0.525645 0.228448,-0.722461 0.152529,-0.196599 0.364181,-0.295007 0.63519,-0.295007 z m -8.073417,0 c 0.265331,0 0.480477,0.09339 0.645,0.280169 0.164523,0.186779 0.246785,0.432473 0.246785,0.737299 0,0.298498 -0.08183,0.545065 -0.245912,0.739699 -0.163869,0.194417 -0.374431,0.291515 -0.631908,0.291515 -0.27777,0 -0.49357,-0.101462 -0.647183,-0.304389 -0.153613,-0.203144 -0.230419,-0.445346 -0.230419,-0.726825 0,-0.284969 0.07615,-0.525645 0.228455,-0.722461 0.152523,-0.196599 0.364177,-0.295007 0.635182,-0.295007 z m -6.764213,0 c 0.265332,0 0.480478,0.09339 0.645001,0.280169 0.164523,0.186779 0.246784,0.432473 0.246784,0.737299 0,0.298498 -0.08183,0.545065 -0.245911,0.739699 -0.163869,0.194417 -0.374432,0.291515 -0.631909,0.291515 -0.277768,0 -0.493569,-0.101462 -0.647182,-0.304389 -0.153613,-0.203144 -0.23042,-0.445346 -0.23042,-0.726825 0,-0.284969 0.07615,-0.525645 0.228457,-0.722461 0.152521,-0.196599 0.364176,-0.295007 0.63518,-0.295007 z m 2.704595,-0.01418 h 1.608354 v 10.065147 h -1.608354 z m -11.61328,0 h 1.615556 v 3.971028 l 0.222564,-0.293042 c 0.473058,-0.481787 1.083365,-0.72268 1.831356,-0.72268 0.604197,0 1.139878,0.162341 1.607264,0.48746 0.467385,0.3249 0.828507,0.759992 1.083802,1.305057 0.255512,0.545282 0.383159,1.12264 0.383159,1.732292 0,0.665075 -0.140738,1.284982 -0.42178,1.859722 -0.281043,0.574958 -0.67555,1.033615 -1.183738,1.375972 -0.508188,0.342356 -1.05369,0.513425 -1.636722,0.513425 -0.796431,0 -1.459105,-0.309407 -1.987587,-0.928006 l -0.292388,0.763919 h -1.221486 z"
       stroke="#003067"
       stroke-width="0.4364"
       stroke-linejoin="round"
       stroke-miterlimit="10"
       fill="#ffffff"
       fill-rule="evenodd"
       id="path62" />
    <rect
       x="7.0354071"
       y="5.5057287"
       width="96.008171"
       height="39.49427"
       stroke="#003067"
       stroke-width="1.7456"
       stroke-linejoin="round"
       stroke-miterlimit="10"
       fill="none"
       id="rect66" />
    <g
       aria-label="bilities"
       id="text64"
       style="font-size:10.2293px;font-family:Arial, Arial_MSFontService, sans-serif;fill-opacity:0;stroke-width:0.2182">
      <path
         d="m 57.584833,35.758118 h -0.834127 v -7.322341 h 0.899059 v 2.612268 q 0.569404,-0.714253 1.45348,-0.714253 0.489488,0 0.924033,0.199791 0.43954,0.194796 0.719248,0.55442 0.284702,0.354629 0.444535,0.859101 0.159832,0.504473 0.159832,1.078872 0,1.363573 -0.674294,2.107795 -0.674295,0.744221 -1.618307,0.744221 -0.939018,0 -1.473459,-0.784179 z m -0.01,-2.692184 q 0,0.954002 0.259729,1.378558 0.424556,0.694274 1.148798,0.694274 0.589383,0 1.018934,-0.509468 0.429551,-0.514461 0.429551,-1.528401 0,-1.038913 -0.414567,-1.533396 -0.409571,-0.494482 -0.99396,-0.494482 -0.589383,0 -1.018934,0.514461 -0.429551,0.509467 -0.429551,1.478454 z"
         id="path2884" />
      <path
         d="m 62.449744,29.469696 v -1.033919 h 0.899059 v 1.033919 z m 0,6.288422 v -5.304452 h 0.899059 v 5.304452 z"
         id="path2886" />
      <path
         d="m 64.697393,35.758118 v -7.322341 h 0.899059 v 7.322341 z"
         id="path2888" />
      <path
         d="m 66.994989,29.469696 v -1.033919 h 0.89906 v 1.033919 z m 0,6.288422 v -5.304452 h 0.89906 v 5.304452 z"
         id="path2890" />
      <path
         d="m 71.225563,34.953959 0.129864,0.794169 q -0.379603,0.07992 -0.679289,0.07992 -0.489488,0 -0.759206,-0.154839 -0.269718,-0.154838 -0.379603,-0.404576 -0.109885,-0.254734 -0.109885,-1.063887 v -3.051808 h -0.65931 v -0.699269 h 0.65931 v -1.313625 l 0.894065,-0.539436 v 1.853061 h 0.904054 v 0.699269 h -0.904054 v 3.101755 q 0,0.384598 0.04495,0.494483 0.04995,0.109885 0.154838,0.174817 0.109885,0.06493 0.309676,0.06493 0.149843,0 0.394587,-0.03496 z"
         id="path2892" />
      <path
         d="m 72.109639,29.469696 v -1.033919 h 0.899059 v 1.033919 z m 0,6.288422 v -5.304452 h 0.899059 v 5.304452 z"
         id="path2894" />
      <path
         d="m 78.008469,34.049905 0.929028,0.114879 q -0.21977,0.814149 -0.814149,1.263679 -0.594378,0.449529 -1.518411,0.449529 -1.163783,0 -1.848067,-0.714253 -0.679289,-0.719247 -0.679289,-2.012894 0,-1.3386 0.689279,-2.077826 0.689278,-0.739227 1.788129,-0.739227 1.063887,0 1.738182,0.724242 0.674294,0.724243 0.674294,2.037869 0,0.07992 -0.005,0.239749 h -3.955862 q 0.04995,0.874085 0.494482,1.338599 0.444535,0.464515 1.108841,0.464515 0.494482,0 0.844117,-0.259729 0.349634,-0.259728 0.55442,-0.829132 z m -2.951913,-1.45348 h 2.961902 q -0.05994,-0.6693 -0.339645,-1.00395 -0.42955,-0.519456 -1.113834,-0.519456 -0.619353,0 -1.043908,0.414566 -0.419562,0.414566 -0.464515,1.10884 z"
         id="path2896" />
      <path
         d="m 79.706692,34.174774 0.88907,-0.139854 q 0.07492,0.534441 0.414566,0.819143 0.34464,0.284703 0.958997,0.284703 0.619352,0 0.919039,-0.249739 0.299686,-0.254734 0.299686,-0.594378 0,-0.304682 -0.264723,-0.479499 -0.184806,-0.119874 -0.919038,-0.304681 -0.988966,-0.249739 -1.373564,-0.429551 -0.379602,-0.184806 -0.579393,-0.504472 -0.194797,-0.32466 -0.194797,-0.714253 0,-0.354629 0.159833,-0.654316 0.164828,-0.304681 0.444535,-0.504472 0.209781,-0.154838 0.569404,-0.259728 0.364619,-0.109885 0.779185,-0.109885 0.624347,0 1.093856,0.179812 0.474504,0.179812 0.699269,0.489488 0.224765,0.304681 0.309676,0.819143 l -0.879081,0.119874 q -0.05994,-0.409571 -0.349634,-0.639331 -0.284702,-0.229759 -0.809154,-0.229759 -0.619352,0 -0.884075,0.204785 -0.264723,0.204786 -0.264723,0.479499 0,0.174817 0.109885,0.314671 0.109885,0.144848 0.34464,0.239749 0.134859,0.04995 0.794169,0.229759 0.954002,0.254734 1.32861,0.419562 0.379603,0.159832 0.594378,0.469508 0.214776,0.309677 0.214776,0.769196 0,0.44953 -0.264723,0.849112 -0.259729,0.394587 -0.754211,0.614357 -0.494483,0.214775 -1.11883,0.214775 -1.033919,0 -1.578349,-0.42955 -0.539436,-0.429551 -0.689279,-1.273668 z"
         id="path2898" />
    </g>
    <g
       clip-path="url(#clip1)"
       id="g76"
       transform="matrix(0.21820039,0,0,0.21820039,-81.772157,-50.353572)">
      <g
         clip-path="url(#clip2)"
         id="g74">
        <g
           clip-path="url(#clip3)"
           id="g72">
          <path
             d="M 786.938,296.808 773.812,284.31 v 0 l -26.25,24.974 2.837,2.421 23.413,-22.239 v 0 l 12.185,11.579 c 0.222,-1.431 0.536,-2.846 0.941,-4.237 z"
             stroke="#333f50"
             stroke-width="0.338134"
             fill="#003067"
             id="path68" />
          <path
             d="m 798.604,328.688 v -14.722 c 4.375,-0.788 7.656,-5.032 7.656,-11.076 0,-6.709 -6.927,-20.578 -9.114,-20.578 -2.188,0 -9.115,13.855 -9.115,20.578 0,6.044 3.318,10.288 7.657,11.076 v 14.722 h -2.917 v -13.373 c -3.865,-1.816 -6.563,-6.023 -6.883,-11.273 l -12.076,-11.084 -18.958,17.406 v 18.324 h -4.375 v -1.087 h 1.232 c 0.51,-0.004 0.946,-0.367 1.043,-0.868 v 0 c 0.209,-0.922 0.662,-1.771 1.313,-2.457 0.091,-0.085 0.095,-0.229 0.009,-0.319 -0.06,-0.064 -0.152,-0.088 -0.235,-0.06 -1.274,0.297 -2.439,0.946 -3.362,1.874 v -2.042 c 3.252,-0.539 1.459,-4.776 1.459,-4.776 -0.062,-0.109 -0.2,-0.147 -0.308,-0.086 -0.036,0.021 -0.066,0.05 -0.086,0.086 l -0.78,1.327 -0.781,-1.327 c -0.043,-0.072 -0.12,-0.116 -0.204,-0.117 -0.081,0.004 -0.155,0.047 -0.197,0.117 l -0.78,1.327 -0.809,-1.327 c -0.066,-0.111 -0.209,-0.147 -0.32,-0.081 -0.034,0.02 -0.061,0.048 -0.081,0.081 0,0 -1.816,4.229 1.458,4.776 v 1.998 c -0.925,-0.909 -2.084,-1.544 -3.347,-1.837 -0.118,-0.04 -0.246,0.025 -0.286,0.143 -0.027,0.084 -0.004,0.175 0.06,0.236 0.653,0.684 1.106,1.534 1.313,2.457 v 0 c 0.097,0.5 0.533,0.863 1.042,0.868 h 1.189 v 1.094 h -5.833 v 4.374 h 64.895 v -4.374 z m -32.083,-8.021 h -7.292 v -7.292 h 7.292 z m 10.937,8.021 h -7.291 v -15.313 h 7.291 z m 10.938,-8.021 h -7.292 v -7.292 h 7.292 z"
             stroke="#333f50"
             stroke-width="0.338134"
             fill="#003067"
             id="path70" />
        </g>
      </g>
    </g>
    <g
       clip-path="url(#clip4)"
       id="g88"
       transform="matrix(0.21820039,0,0,0.21820039,-81.772157,-50.353572)">
      <g
         clip-path="url(#clip5)"
         id="g86">
        <g
           clip-path="url(#clip6)"
           id="g84">
          <path
             d="m 505.333,406.771 c 0,1.979 -1.604,3.583 -3.583,3.583 -1.979,0 -3.583,-1.604 -3.583,-3.583 0,-1.979 1.604,-3.583 3.583,-3.583 1.979,0 3.583,1.604 3.583,3.583 z"
             fill="#003067"
             id="path78" />
          <path
             d="m 526.833,406.771 c 0,1.979 -1.604,3.583 -3.583,3.583 -1.979,0 -3.583,-1.604 -3.583,-3.583 0,-1.979 1.604,-3.583 3.583,-3.583 1.979,0 3.583,1.604 3.583,3.583 z"
             fill="#003067"
             id="path80" />
          <path
             d="m 508.469,397.812 v -5.374 h 6.136 c 0.493,0 0.941,0.179 1.254,0.537 l 4.838,4.837 z m -1.792,0 h -11.332 l 4.837,-4.837 c 0.359,-0.358 0.807,-0.537 1.254,-0.537 h 5.241 z m 21.052,0 h -3.718 c -0.492,0 -0.94,-0.179 -1.254,-0.537 l -5.643,-5.599 c -0.672,-0.672 -1.568,-1.03 -2.554,-1.03 h -13.124 c -0.94,0 -1.881,0.358 -2.553,1.03 l -5.554,5.599 c -0.358,0.358 -0.537,0.806 -0.537,1.299 v 4.614 c 0,1.97 1.612,3.583 3.583,3.583 h 0.448 c 0,-2.732 2.195,-4.927 4.927,-4.927 2.732,0 4.927,2.195 4.927,4.927 h 11.646 c 0,-2.732 2.195,-4.927 4.927,-4.927 2.732,0 4.927,2.195 4.927,4.927 h 2.24 c 0.985,0 1.791,-0.806 1.791,-1.792 v -2.687 c 0,-2.464 -2.015,-4.48 -4.479,-4.48 z"
             fill="#003067"
             id="path82" />
        </g>
      </g>
    </g>
    <g
       clip-path="url(#clip7)"
       id="g100"
       transform="matrix(0.21820039,0,0,0.21820039,-81.772157,-50.353572)">
      <g
         clip-path="url(#clip8)"
         id="g98">
        <g
           clip-path="url(#clip9)"
           id="g96">
          <path
             d="M 3.5,13.125 C 3.5,12.6438 3.89375,12.25 4.375,12.25 H 10.5 v 7 h -7 z m 8.75,-0.875 h 7 v 7 h -7 z m 8.75,0 h 7 v 7 h -7 z m 8.75,0 h 5.8188 c 0.8312,0 1.5749,0.6125 1.7062,1.4437 l 1.0062,6.2125 c 0.0875,0.6563 0.175,1.3126 0.175,1.9688 H 32.375 L 29.75,19.25 Z m -28,0 V 28 c 0,0.9625 0.7875,1.75 1.75,1.75 H 3.5875 C 3.54375,29.4875 3.5,29.1812 3.5,28.875 3.5,26.4688 5.46875,24.5 7.875,24.5 c 2.4062,0 4.375,1.9688 4.375,4.375 0,0.3062 -0.0437,0.6125 -0.0875,0.875 h 15.925 C 28.0437,29.4875 28,29.1812 28,28.875 28,26.4688 29.9688,24.5 32.375,24.5 c 2.4062,0 4.375,1.9688 4.375,4.375 0,0.3062 -0.0438,0.6125 -0.0875,0.875 H 38.5 c 0.9625,0 1.75,-0.7875 1.75,-1.75 v -5.6 c 0,-0.9188 -0.0875,-1.8812 -0.2188,-2.8 L 39.025,13.3438 c -0.3062,-1.6625 -1.75,-2.8875 -3.4562,-2.8875 H 3.5 C 2.5375,10.5 1.75,11.2875 1.75,12.25 Z"
             fill="#003067"
             transform="matrix(1,0,0,1.02381,442,377)"
             id="path90" />
          <path
             d="m 35.4375,28.875 c 0,1.6914 -1.3711,3.0625 -3.0625,3.0625 -1.6914,0 -3.0625,-1.3711 -3.0625,-3.0625 0,-1.6914 1.3711,-3.0625 3.0625,-3.0625 1.6914,0 3.0625,1.3711 3.0625,3.0625 z"
             fill="#003067"
             transform="matrix(1,0,0,1.02381,442,377)"
             id="path92" />
          <path
             d="m 10.9375,28.875 c 0,1.6914 -1.37113,3.0625 -3.0625,3.0625 -1.69137,0 -3.0625,-1.3711 -3.0625,-3.0625 0,-1.6914 1.37113,-3.0625 3.0625,-3.0625 1.69137,0 3.0625,1.3711 3.0625,3.0625 z"
             fill="#003067"
             transform="matrix(1,0,0,1.02381,442,377)"
             id="path94" />
        </g>
      </g>
    </g>
    <g
       clip-path="url(#clip10)"
       id="g110"
       transform="matrix(0.21820039,0,0,0.21820039,-81.772157,-50.353572)">
      <g
         clip-path="url(#clip11)"
         id="g108">
        <g
           clip-path="url(#clip12)"
           id="g106">
          <path
             d="m 22.875,4.875 c 0,1.65685 -1.3431,3 -3,3 -1.6569,0 -3,-1.34315 -3,-3 0,-1.65685 1.3431,-3 3,-3 1.6569,0 3,1.34315 3,3 z"
             fill="#003067"
             transform="matrix(1,0,0,1.02778,451,344)"
             id="path102" />
          <path
             d="M 27.4875,16.575 23.625,15.3 c 0,0 -2.1375,-4.95 -2.2125,-5.1 -0.525,-0.9375 -1.5,-1.575 -2.625,-1.575 -0.45,0 -0.9,0.1125 -1.275,0.3 l -5.25,2.0625 c -0.375,0.15 -0.675,0.45 -0.825,0.825 l -1.875,4.5 c -0.3,0.75 0.0375,1.65 0.825,1.95 0.1875,0.075 0.375,0.1125 0.5625,0.1125 0.6,0 1.1625,-0.3375 1.3875,-0.9375 l 1.5375,-3.9 1.575,-0.6 -2.5875,12.6375 -5.025,6.1125 c -0.525,0.6375 -0.45,1.575 0.1875,2.1 0.2625,0.225 0.6,0.3375 0.9375,0.3375 0.45,0 0.8625,-0.1875 1.1625,-0.5625 l 5.25,-6.375 C 15.525,27 15.6375,26.775 15.675,26.55 l 0.9,-4.35 4.05,2.925 v 7.5 c 0,0.825 0.675,1.5 1.5,1.5 0.825,0 1.5,-0.675 1.5,-1.5 v -8.25 c 0,-0.4875 -0.225,-0.9375 -0.6,-1.2 L 19.3875,20.5125 20.4,15.45 21.1125,17.1 c 0.1875,0.375 0.4875,0.675 0.9,0.825 l 4.5,1.5 c 0.15,0.0375 0.3,0.075 0.4875,0.075 0.6375,0 1.2,-0.4125 1.425,-1.0125 0.2625,-0.7875 -0.15,-1.65 -0.9375,-1.9125 z"
             fill="#003067"
             transform="matrix(1,0,0,1.02778,451,344)"
             id="path104" />
        </g>
      </g>
    </g>
    <g
       clip-path="url(#clip13)"
       id="g124"
       transform="matrix(0.21820039,0,0,0.21820039,-81.772157,-50.353572)">
      <g
         clip-path="url(#clip14)"
         id="g122">
        <g
           clip-path="url(#clip15)"
           id="g120">
          <path
             d="m 25.125,5.8125 c 0,1.65685 -1.3431,3 -3,3 -1.6569,0 -3,-1.34315 -3,-3 0,-1.65685 1.3431,-3 3,-3 1.6569,0 3,1.34315 3,3 z"
             fill="#003067"
             transform="matrix(1,0,0,1.02778,484,346)"
             id="path112" />
          <path
             d="m 8.625,20.4375 c -3.525,0 -6.375,2.85 -6.375,6.375 0,3.525 2.85,6.375 6.375,6.375 3.525,0 6.375,-2.85 6.375,-6.375 0,-3.525 -2.85,-6.375 -6.375,-6.375 z m 0,11.25 c -2.7,0 -4.875,-2.175 -4.875,-4.875 0,-2.7 2.175,-4.875 4.875,-4.875 2.7,0 4.875,2.175 4.875,4.875 0,2.7 -2.175,4.875 -4.875,4.875 z"
             fill="#003067"
             transform="matrix(1,0,0,1.02778,484,346)"
             id="path114" />
          <path
             d="m 27.375,20.4375 c -3.525,0 -6.375,2.85 -6.375,6.375 0,3.525 2.85,6.375 6.375,6.375 3.525,0 6.375,-2.85 6.375,-6.375 0,-3.525 -2.85,-6.375 -6.375,-6.375 z m 0,11.25 c -2.7,0 -4.875,-2.175 -4.875,-4.875 0,-2.7 2.175,-4.875 4.875,-4.875 2.7,0 4.875,2.175 4.875,4.875 0,2.7 -2.175,4.875 -4.875,4.875 z"
             fill="#003067"
             transform="matrix(1,0,0,1.02778,484,346)"
             id="path116" />
          <path
             d="m 20.8875,14.925 c 0.3,0.3 0.675,0.45 1.05,0.45 H 26.25 c 0.825,0 1.5,-0.675 1.5,-1.5 0,-0.825 -0.675,-1.5 -1.5,-1.5 h -3.675 c 0,0 -4.275,-4.3125 -4.35,-4.35 C 17.2875,7.2 15.8625,7.3125 15.0375,8.25 l -5.1,5.8125 C 9.1125,15 9.225,16.425 10.125,17.25 c 0.225,0.1875 0.45,0.3375 0.7125,0.4125 v 0 l 5.625,2.25 v 6.8625 c 0,0.825 0.675,1.5 1.5,1.5 0.825,0 1.5,-0.675 1.5,-1.5 V 18.9 c 0,-0.6 -0.375,-1.1625 -0.9,-1.3875 L 14.4,15.75 l 3.4125,-3.9 z"
             fill="#003067"
             transform="matrix(1,0,0,1.02778,484,346)"
             id="path118" />
        </g>
      </g>
    </g>
  </g>
</svg>
